<svg width="32" height="32" viewBox="0 0 32 32" fill="none" xmlns="http://www.w3.org/2000/svg">
  <!-- Outer glow -->
  <circle cx="16" cy="16" r="15" fill="none" stroke="#C99A3E" stroke-width="0.5" opacity="0.3"/>
  <!-- Cloud body made of overlapping circles -->
  <circle cx="16" cy="18" r="7" fill="#C99A3E" opacity="0.25"/>
  <circle cx="11" cy="20" r="5" fill="#C99A3E" opacity="0.2"/>
  <circle cx="21" cy="20" r="5" fill="#C99A3E" opacity="0.2"/>
  <!-- Main cloud path -->
  <path d="M22 21H11C9.34315 21 8 19.6569 8 18C8 16.3431 9.34315 15 11 15C11.1048 15 11.2085 15.0065 11.3107 15.0193C12.5341 12.7987 14.8549 11.2 17.55 11.2C20.7696 11.2 23.47 13.3582 24.144 16.0422C25.7078 16.2776 26.95 17.6212 26.95 19.25C26.95 20.982 25.582 22.35 23.85 22.35H22V21Z" fill="#C99A3E"/>
  <!-- Accent line -->
  <line x1="16" y1="8" x2="16" y2="14" stroke="#C99A3E" stroke-width="1.5" stroke-linecap="round"/>
</svg>
